<svg id="svg" version="1.1" xmlns="http://www.w3.org/2000/svg" xmlns:xlink="http://www.w3.org/1999/xlink" width="250" height="250" viewBox="75, 25, 250,250"><g id="svgg"><path id="path0" d="M189.453 58.876 C 143.844 62.647,105.233 95.963,96.520 139.063 C 90.493 168.881,97.827 196.176,119.271 223.726 L 122.689 228.117 119.913 236.617 C 113.922 254.960,111.766 263.330,112.448 265.604 C 113.744 269.932,117.735 271.217,122.793 268.935 C 131.259 265.116,152.988 255.580,156.539 254.126 L 160.911 252.335 165.709 253.670 C 171.654 255.323,176.479 256.383,183.496 257.577 L 184.766 257.793 184.773 252.236 C 184.782 245.107,185.380 227.295,185.990 215.985 C 186.842 200.162,185.529 196.901,175.673 190.361 C 159.487 179.620,154.977 168.466,156.825 143.750 C 157.480 135.002,158.412 120.481,158.956 110.547 C 159.370 102.986,159.709 101.711,161.966 99.212 C 164.863 96.006,170.092 95.854,172.931 98.894 C 175.017 101.129,175.000 100.904,175.002 125.671 C 175.005 151.188,174.979 150.907,177.496 153.331 C 180.746 156.462,185.291 156.651,188.549 153.791 C 191.489 151.209,191.388 152.176,191.398 126.426 C 191.407 101.115,191.304 102.240,193.866 99.606 C 197.077 96.305,202.191 95.922,205.225 98.755 C 207.863 101.219,207.794 100.506,207.804 125.511 C 207.814 150.828,207.811 150.802,210.319 153.306 C 213.569 156.551,218.160 156.666,221.572 153.587 C 224.323 151.105,224.219 152.165,224.221 126.673 C 224.222 112.083,224.370 103.181,224.627 102.258 C 226.235 96.468,234.391 94.989,238.556 99.733 C 240.246 101.657,240.620 103.293,240.626 108.789 C 240.631 113.239,241.501 129.027,242.778 147.827 C 244.272 169.816,239.439 180.608,223.746 190.328 C 212.648 197.201,211.756 199.854,213.072 222.070 C 213.378 227.227,213.845 237.362,214.111 244.593 L 214.595 257.740 215.989 257.545 C 258.171 251.637,294.088 219.452,302.875 179.688 C 317.642 112.857,261.379 52.928,189.453 58.876 " stroke="none" fill="#4b9bd3" fill-rule="evenodd"></path><path id="path2" d="M196.973 58.472 C 197.349 58.571,197.964 58.571,198.340 58.472 C 198.716 58.374,198.408 58.294,197.656 58.294 C 196.904 58.294,196.597 58.374,196.973 58.472 M200.879 58.483 C 201.470 58.572,202.437 58.572,203.027 58.483 C 203.618 58.393,203.135 58.320,201.953 58.320 C 200.771 58.320,200.288 58.393,200.879 58.483 M224.309 104.688 C 224.309 105.439,224.390 105.747,224.488 105.371 C 224.586 104.995,224.586 104.380,224.488 104.004 C 224.390 103.628,224.309 103.936,224.309 104.688 M191.497 106.250 C 191.497 107.002,191.577 107.310,191.676 106.934 C 191.774 106.558,191.774 105.942,191.676 105.566 C 191.577 105.190,191.497 105.498,191.497 106.250 M240.341 107.031 C 240.341 107.998,240.417 108.394,240.510 107.910 C 240.603 107.427,240.603 106.636,240.510 106.152 C 240.417 105.669,240.341 106.064,240.341 107.031 M224.401 127.539 C 224.401 139.355,224.451 144.246,224.511 138.407 C 224.572 132.567,224.572 122.899,224.512 116.922 C 224.451 110.945,224.401 115.723,224.401 127.539 M191.585 132.227 C 191.585 141.035,191.636 144.694,191.699 140.358 C 191.761 136.022,191.762 128.815,191.699 124.343 C 191.636 119.870,191.585 123.418,191.585 132.227 M184.872 247.266 C 184.872 248.232,184.948 248.628,185.041 248.145 C 185.134 247.661,185.134 246.870,185.041 246.387 C 184.948 245.903,184.872 246.299,184.872 247.266 M214.161 250.977 C 214.165 251.836,214.245 252.142,214.339 251.656 C 214.432 251.170,214.429 250.467,214.331 250.093 C 214.233 249.720,214.157 250.117,214.161 250.977 " stroke="none" fill="#9dc8e7" fill-rule="evenodd"></path><path id="path3" d="M194.629 58.472 C 195.005 58.571,195.620 58.571,195.996 58.472 C 196.372 58.374,196.064 58.294,195.313 58.294 C 194.561 58.294,194.253 58.374,194.629 58.472 M276.953 90.039 C 278.120 91.221,279.163 92.188,279.270 92.188 C 279.378 92.188,278.511 91.221,277.344 90.039 C 276.177 88.857,275.134 87.891,275.027 87.891 C 274.919 87.891,275.786 88.857,276.953 90.039 M207.605 125.586 C 207.605 137.832,207.654 142.785,207.715 136.593 C 207.775 130.401,207.775 120.382,207.715 114.328 C 207.654 108.274,207.605 113.340,207.605 125.586 M240.325 109.766 C 240.325 110.518,240.405 110.825,240.504 110.449 C 240.602 110.073,240.602 109.458,240.504 109.082 C 240.405 108.706,240.325 109.014,240.325 109.766 M305.221 158.789 C 305.222 160.938,305.287 161.767,305.367 160.631 C 305.446 159.496,305.445 157.738,305.365 156.725 C 305.285 155.712,305.220 156.641,305.221 158.789 M212.208 208.398 C 212.212 209.258,212.292 209.563,212.386 209.077 C 212.479 208.592,212.476 207.888,212.378 207.515 C 212.280 207.142,212.204 207.539,212.208 208.398 M186.419 208.594 C 186.419 209.346,186.499 209.653,186.597 209.277 C 186.696 208.901,186.696 208.286,186.597 207.910 C 186.499 207.534,186.419 207.842,186.419 208.594 M185.247 234.375 C 185.247 235.127,185.327 235.435,185.426 235.059 C 185.524 234.683,185.524 234.067,185.426 233.691 C 185.327 233.315,185.247 233.623,185.247 234.375 M184.887 250.977 C 184.889 252.266,184.962 252.746,185.049 252.044 C 185.136 251.342,185.134 250.287,185.045 249.700 C 184.956 249.113,184.884 249.688,184.887 250.977 M214.194 255.078 C 214.194 256.689,214.263 257.349,214.347 256.543 C 214.431 255.737,214.431 254.419,214.347 253.613 C 214.263 252.808,214.194 253.467,214.194 255.078 " stroke="none" fill="#c9def1" fill-rule="evenodd"></path><path id="path4" d="M191.551 111.328 C 191.551 113.584,191.615 114.507,191.694 113.379 C 191.773 112.251,191.773 110.405,191.694 109.277 C 191.615 108.149,191.551 109.072,191.551 111.328 M243.090 156.055 C 243.092 157.344,243.165 157.824,243.252 157.122 C 243.339 156.420,243.337 155.365,243.248 154.778 C 243.159 154.191,243.088 154.766,243.090 156.055 M185.247 230.469 C 185.247 231.221,185.327 231.528,185.426 231.152 C 185.524 230.776,185.524 230.161,185.426 229.785 C 185.327 229.409,185.247 229.717,185.247 230.469 M184.872 244.141 C 184.872 245.107,184.948 245.503,185.041 245.020 C 185.134 244.536,185.134 243.745,185.041 243.262 C 184.948 242.778,184.872 243.174,184.872 244.141 " stroke="none" fill="#7cbce0" fill-rule="evenodd"></path></g></svg>